<?xml version="1.0" standalone="no"?>
<!DOCTYPE svg PUBLIC "-//W3C//DTD SVG 20010904//EN"
 "http://www.w3.org/TR/2001/REC-SVG-20010904/DTD/svg10.dtd">
<svg version="1.0" xmlns="http://www.w3.org/2000/svg"
 width="200.000000pt" height="200.000000pt" viewBox="0 0 200.000000 200.000000"
 preserveAspectRatio="xMidYMid meet">
<metadata>
Created by potrace 1.11, written by Peter Selinger 2001-2013
</metadata>
<g transform="translate(0.000000,200.000000) scale(0.100000,-0.100000)"
fill="#000000" stroke="none">
<path d="M993 1518 c-6 -18 -32 -87 -58 -153 -69 -178 -75 -195 -65 -195 5 0
41 64 80 142 39 78 73 144 74 146 2 2 27 -41 56 -94 117 -217 117 -216 114
-272 -4 -61 -13 -64 114 30 87 64 109 78 99 61 -3 -5 -8 -37 -12 -73 -3 -36
-8 -72 -11 -80 -3 -13 42 -75 148 -199 l20 -23 -69 6 c-37 3 -75 6 -85 6 -10
0 -28 25 -48 68 l-32 67 -14 -30 c-7 -16 -13 -35 -14 -42 0 -20 -109 -47 -197
-48 -77 -1 -84 1 -122 29 l-41 31 5 75 6 75 -46 47 c-37 38 -218 158 -239 158
-3 0 -29 -44 -59 -97 -29 -54 -66 -120 -82 -148 -80 -143 -97 -176 -92 -181 2
-3 60 81 127 186 67 104 124 190 125 190 1 0 28 -40 59 -89 l56 -89 -35 -64
c-30 -55 -33 -69 -26 -96 9 -29 7 -32 -12 -33 -12 -1 -31 -3 -42 -4 -11 -1
-62 -5 -112 -9 -117 -9 -172 -15 -356 -42 l-107 -16 2 -157 c3 -177 -9 -159
103 -148 33 4 87 9 120 12 33 3 78 8 100 10 243 25 957 25 1140 0 17 -2 66 -6
110 -10 87 -7 142 -13 193 -21 l32 -5 0 159 0 159 -77 13 c-43 7 -94 14 -114
16 -20 2 -53 7 -73 11 l-38 8 -86 210 c-47 116 -87 211 -88 213 -1 2 -26 -9
-54 -23 -29 -15 -56 -23 -59 -18 -8 13 -124 155 -136 169 -5 6 -26 30 -45 54
-58 72 -112 135 -120 138 -3 1 -11 -12 -17 -30z"/>
</g>
</svg>
